<?xml version="1.0" encoding="UTF-8"?>
<svg width="149px" height="22px" viewBox="0 0 149 22" version="1.1" xmlns="http://www.w3.org/2000/svg" xmlns:xlink="http://www.w3.org/1999/xlink">
    <!-- Generator: Sketch 41 (35326) - http://www.bohemiancoding.com/sketch -->
    <title>Page 1</title>
    <desc>Created with Sketch.</desc>
    <defs>
        <polygon id="path-1" points="0 0.136357143 0 20.7837857 14.3801476 20.7837857 14.3801476 0.136357143 1.4843244e-20 0.136357143"></polygon>
        <polygon id="path-3" points="16.1109524 21.3187 16.1109524 0.851985714 0.489133333 0.851985714 0.489133333 21.3187 16.1109524 21.3187"></polygon>
        <polygon id="path-5" points="0.0357047619 8.76190476 8.3485619 8.76190476 8.3485619 0.449266667 0.0357047619 0.449266667"></polygon>
    </defs>
    <g id="HOMEPAGE" stroke="none" stroke-width="1" fill="none" fill-rule="evenodd">
        <g id="01_GJK_HOMEPAGE" transform="translate(-901.000000, -2576.000000)">
            <g id="Page-1" transform="translate(901.000000, 2575.000000)">
                <g id="Group-3" transform="translate(0.000000, 1.932110)">
                    <mask id="mask-2" fill="white">
                        <use xlink:href="#path-1"></use>
                    </mask>
                    <g id="Clip-2"></g>
                    <path d="M14.271719,4.32783333 C14.1994333,4.37383333 14.0997667,4.3957381 13.972719,4.3957381 L13.8916714,4.3957381 C13.2411,4.35959524 12.4262429,4.31469048 11.4492905,4.25992857 C10.4734333,4.2062619 9.40557619,4.17888095 8.24790952,4.17888095 C7.70576667,4.17888095 7.21290952,4.25116667 6.7693381,4.3957381 C6.32576667,4.54140476 5.95119524,4.78892857 5.64343333,5.14159524 C5.33567143,5.4942619 5.10129048,5.96959524 4.9381,6.5665 C4.77490952,7.16340476 4.6938619,7.90488095 4.6938619,8.79092857 L4.6938619,12.182881 C4.6938619,13.1236905 4.78914762,13.8925476 4.97862381,14.4894524 C5.16919524,15.0863571 5.4123381,15.5562143 5.7113381,15.900119 C6.00924286,16.2440238 6.34000476,16.4795 6.70143333,16.6054524 C7.0628619,16.7325 7.40676667,16.7949286 7.73314762,16.7949286 C8.47462381,16.7949286 9.17119524,16.7675476 9.82176667,16.713881 L9.82176667,10.4732143 C9.82176667,10.3286429 9.87105238,10.2015952 9.97071905,10.0931667 C10.0703857,9.9847381 10.1930524,9.93107143 10.3376238,9.93107143 L13.8106238,9.93107143 C13.9551952,9.93107143 14.0822429,9.9847381 14.1906714,10.0931667 C14.2991,10.2015952 14.3527667,10.3286429 14.3527667,10.4732143 L14.3527667,19.5899762 C14.3527667,19.933881 14.1720524,20.1419762 13.8106238,20.2142619 C13.0680524,20.3588333 12.2093857,20.4902619 11.2324333,20.6074524 C10.255481,20.7246429 9.08905238,20.7837857 7.73314762,20.7837857 C7.22605238,20.7837857 6.67843333,20.730119 6.09138571,20.6205952 C5.50324286,20.5121667 4.92495714,20.3314524 4.3543381,20.0784524 C3.78481429,19.8254524 3.23719524,19.4815476 2.71367143,19.0467381 C2.18795714,18.6130238 1.72357619,18.0796429 1.31614762,17.4465952 C0.908719048,16.8135476 0.587814286,16.0578333 0.352338095,15.1805476 C0.116861905,14.3032619 -0.000328571429,13.2956429 -0.000328571429,12.1555 L-0.000328571429,8.79092857 C-0.000328571429,7.05497619 0.243909524,5.63007143 0.732385714,4.51840476 C1.2208619,3.40564286 1.85829048,2.52397619 2.64576667,1.87230952 C3.43214762,1.2217381 4.31819524,0.769404762 5.30500476,0.516404762 C6.28962381,0.262309524 7.27095714,0.136357143 8.24790952,0.136357143 C9.60490952,0.136357143 10.7625762,0.21302381 11.7209095,0.366357143 C12.6792429,0.520785714 13.4119571,0.651119048 13.9190524,0.760642857 C14.2268143,0.814309524 14.3801476,0.950119048 14.3801476,1.16697619 L14.3801476,4.04307143 C14.3801476,4.18764286 14.3440048,4.28292857 14.271719,4.32783333" id="Fill-1" fill="#020302" mask="url(#mask-2)"></path>
                </g>
                <path d="M28.9771524,10.7702429 C28.9771524,9.11752857 28.7011524,7.92700476 28.1502476,7.2008619 C27.5982476,6.47471905 26.7527238,6.1111 25.612581,6.1111 C24.4735333,6.1111 23.6323905,6.47471905 23.0891524,7.2008619 C22.5470095,7.92700476 22.2753905,9.11752857 22.2753905,10.7702429 L22.2753905,14.0132429 C22.2753905,15.6670524 22.5470095,16.856481 23.0891524,17.583719 C23.6323905,18.3098619 24.4735333,18.673481 25.612581,18.673481 C26.7527238,18.673481 27.5982476,18.3098619 28.1502476,17.583719 C28.7011524,16.856481 28.9771524,15.6670524 28.9771524,14.0132429 L28.9771524,10.7702429 Z M33.616581,14.0066714 C33.616581,15.5805286 33.409581,16.9189095 32.9933905,18.0218143 C32.5782952,19.1258143 32.0098667,20.0261 31.2870095,20.7215762 C30.5652476,21.4181476 29.7164381,21.9241476 28.7416762,22.2406714 C27.765819,22.5571952 26.7187714,22.7160048 25.5994381,22.7160048 C24.4801048,22.7160048 23.4319619,22.5571952 22.4572,22.2406714 C21.4824381,21.9241476 20.6336286,21.4181476 19.9107714,20.7215762 C19.1879143,20.0261 18.6194857,19.1258143 18.2043905,18.0218143 C17.7892952,16.9189095 17.5822952,15.5805286 17.5822952,14.0066714 L17.5822952,10.7779095 C17.5822952,9.20405238 17.7892952,7.86567143 18.2043905,6.76167143 C18.6194857,5.65876667 19.1879143,4.75848095 19.9107714,4.06300476 C20.6336286,3.36643333 21.4824381,2.8593381 22.4572,2.54281429 C23.4319619,2.22629048 24.4801048,2.06857619 25.5994381,2.06857619 C26.7187714,2.06857619 27.765819,2.22629048 28.7416762,2.54281429 C29.7164381,2.8593381 30.5652476,3.36643333 31.2870095,4.06300476 C32.0098667,4.75848095 32.5782952,5.65876667 32.9933905,6.76167143 C33.409581,7.86567143 33.616581,9.20405238 33.616581,10.7779095 L33.616581,14.0066714 Z" id="Fill-4" fill="#020302"></path>
                <path d="M111.183643,21.9382762 C110.611929,22.1288476 109.03369,22.4015619 107.127976,22.4015619 C102.991262,22.4015619 99.0714048,20.2242286 99.0714048,13.7458952 L99.0714048,10.3167048 C99.0714048,3.83946667 102.991262,1.68841905 107.127976,1.68841905 C109.03369,1.68841905 110.611929,1.96113333 111.183643,2.15170476 C111.564786,2.26013333 111.782738,2.36965714 111.782738,2.74970476 L111.782738,5.39032381 C111.782738,5.71670476 111.619548,5.93465714 111.26469,5.93465714 L111.183643,5.93465714 C110.149738,5.85360952 108.652548,5.71670476 107.155357,5.71670476 C105.277024,5.71670476 103.780929,6.69694286 103.780929,10.3167048 L103.780929,13.7458952 C103.780929,17.3656571 105.277024,18.3458952 107.155357,18.3458952 C108.652548,18.3458952 110.149738,18.2100857 111.183643,18.1279429 L111.26469,18.1279429 C111.619548,18.1279429 111.782738,18.3458952 111.782738,18.6722762 L111.782738,21.3128952 C111.782738,21.6929429 111.564786,21.8298476 111.183643,21.9382762" id="Fill-6" fill="#221F20"></path>
                <path d="M122.370186,5.96181905 C122.316519,5.6902 122.261757,5.55329524 122.016424,5.55329524 C121.77109,5.55329524 121.690043,5.6902 121.635281,5.96181905 L119.9749,13.4740571 L124.030567,13.4740571 L122.370186,5.96181905 Z M130.127757,22.1560095 L126.316329,22.1560095 C126.04471,22.1560095 125.826757,21.9380571 125.771995,21.6664381 L124.792852,17.2022476 L119.21371,17.2022476 L118.233471,21.6664381 C118.17871,21.9380571 117.960757,22.1560095 117.689138,22.1560095 L113.878805,22.1560095 C113.60609,22.1560095 113.415519,21.992819 113.415519,21.7201048 C113.415519,21.693819 113.4429,21.6390571 113.4429,21.5842952 L117.498567,4.7099619 C118.123948,2.09672381 120.13809,1.6882 122.016424,1.6882 C123.894757,1.6882 125.881519,2.09672381 126.507995,4.7099619 L130.562567,21.5842952 C130.562567,21.6390571 130.589948,21.693819 130.589948,21.7201048 C130.589948,21.992819 130.399376,22.1560095 130.127757,22.1560095 L130.127757,22.1560095 Z" id="Fill-8" fill="#221F20"></path>
                <g id="Group-12" transform="translate(132.523810, 0.836871)">
                    <mask id="mask-4" fill="white">
                        <use xlink:href="#path-3"></use>
                    </mask>
                    <g id="Clip-11"></g>
                    <path d="M10.8040857,7.22079524 C10.8040857,5.56041429 9.52484762,4.79812857 7.23908571,4.79812857 C6.85794286,4.79812857 5.44289524,4.85289048 5.11541905,4.88027143 L5.11541905,10.1056524 C5.41551429,10.1330333 6.74841905,10.1604143 7.04851429,10.1604143 C9.90599048,10.1604143 10.8040857,9.42550952 10.8040857,7.57455714 L10.8040857,7.22079524 Z M15.7030857,21.3187 L11.5389905,21.3187 C11.2399905,21.3187 11.1304667,21.047081 10.9946571,20.7754619 L7.34751429,13.8886048 L7.04851429,13.9159857 C6.4768,13.9159857 5.63346667,13.8612238 5.11541905,13.8612238 L5.11541905,20.7754619 C5.11541905,21.0744619 4.87118095,21.3187 4.57108571,21.3187 L1.03346667,21.3187 C0.733371429,21.3187 0.489133333,21.0744619 0.489133333,20.7754619 L0.489133333,2.51236667 C0.489133333,1.58689048 0.87027619,1.34155714 1.71360952,1.20574762 C2.96546667,1.01517619 5.27860952,0.851985714 7.23908571,0.851985714 C11.8653714,0.851985714 15.4303714,2.40284286 15.4303714,7.22079524 L15.4303714,7.57455714 C15.4303714,10.4594143 13.9068952,12.229319 11.9201333,13.0178905 L16.0294667,20.693319 C16.0842286,20.8017476 16.1116095,20.9112714 16.1116095,20.992319 C16.1116095,21.1828905 16.0020857,21.3187 15.7030857,21.3187 L15.7030857,21.3187 Z" id="Fill-10" fill="#221F20" mask="url(#mask-4)"></path>
                </g>
                <g id="Group-15" transform="translate(44.904762, 13.979729)">
                    <mask id="mask-6" fill="white">
                        <use xlink:href="#path-5"></use>
                    </mask>
                    <g id="Clip-14"></g>
                    <path d="M4.19213333,6.79288571 C2.98408571,6.79288571 2.00494286,5.81374286 2.00494286,4.60569524 C2.00494286,3.39764762 2.98408571,2.41850476 4.19213333,2.41850476 C5.40018095,2.41850476 6.37932381,3.39764762 6.37932381,4.60569524 C6.37932381,5.81374286 5.40018095,6.79288571 4.19213333,6.79288571 M4.19213333,0.449266667 C1.89651429,0.449266667 0.0357047619,2.31007619 0.0357047619,4.60569524 C0.0357047619,6.90131429 1.89651429,8.76212381 4.19213333,8.76212381 C6.48775238,8.76212381 8.3485619,6.90131429 8.3485619,4.60569524 C8.3485619,2.31007619 6.48775238,0.449266667 4.19213333,0.449266667" id="Fill-13" fill="#16619D" mask="url(#mask-6)"></path>
                </g>
                <path d="M79.7759381,18.5852048 C79.7759381,17.3771571 80.755081,16.3980143 81.9631286,16.3980143 C83.1711762,16.3980143 84.150319,17.3771571 84.150319,18.5852048 C84.150319,19.7932524 83.1711762,20.7723952 81.9631286,20.7723952 C80.755081,20.7723952 79.7759381,19.7932524 79.7759381,18.5852048 M77.8067,18.5852048 C77.8067,20.8808238 79.6675095,22.7416333 81.9631286,22.7416333 C84.2587476,22.7416333 86.1195571,20.8808238 86.1195571,18.5852048 C86.1195571,16.2895857 84.2587476,14.4287762 81.9631286,14.4287762 C79.6675095,14.4287762 77.8067,16.2895857 77.8067,18.5852048" id="Fill-16" fill="#16619D"></path>
                <path d="M41.0399952,12.7265571 L40.7158048,12.7265571 C40.4759476,12.7265571 40.2820905,12.5316048 40.2820905,12.2928429 L40.2820905,9.23274762 C40.2820905,8.99289048 40.4759476,8.79903333 40.7158048,8.79903333 L41.0399952,8.79903333 C41.2798524,8.79903333 41.4737095,8.99289048 41.4737095,9.23274762 L41.4737095,12.2928429 C41.4737095,12.5316048 41.2798524,12.7265571 41.0399952,12.7265571" id="Fill-18" fill="#16619D"></path>
                <path d="M92.2048095,13.2351857 L92.2048095,13.6174238 C92.2048095,13.8999952 91.9759048,14.1299952 91.6922381,14.1299952 L88.0812381,14.1299952 C87.7975714,14.1299952 87.5686667,13.8999952 87.5686667,13.6174238 L87.5686667,13.2351857 C87.5686667,12.9526143 87.7975714,12.7226143 88.0812381,12.7226143 L91.6922381,12.7226143 C91.9759048,12.7226143 92.2048095,12.9526143 92.2048095,13.2351857" id="Fill-20" fill="#16619D"></path>
                <path d="M62.3202524,9.25070952 L62.3202524,3.41637619 C63.8273,3.41637619 67.3035857,3.4656619 69.7832048,4.34075714 C72.2628238,5.21585238 76.6908714,7.50051905 76.6908714,7.50051905 L76.5287762,7.50051905 L75.4346333,7.50051905 C75.069919,7.50051905 74.0130143,7.99885238 74.8147286,9.25070952 L62.3202524,9.25070952 Z M60.2294429,9.00756667 L49.8268714,9.00756667 L48.2705381,7.1599 C48.2705381,7.1599 52.4269667,3.41637619 56.632681,3.41637619 L60.2294429,3.41637619 L60.2294429,9.00756667 Z M86.385919,9.25070952 C80.2120619,8.1171381 73.2102048,1.23575714 63.5951095,1.23575714 C62.8306333,1.23575714 60.3159667,1.09556667 59.5361571,1.09556667 C49.5081571,1.09556667 46.4710619,6.91675714 43.3474429,6.91675714 L42.363919,6.91675714 L42.0112524,6.91675714 L41.6585857,6.91675714 C40.3180143,6.91675714 39.2304429,7.94299524 39.1055857,9.25070952 L39.0814905,9.25070952 L39.0814905,15.7651857 L39.0814905,17.0290905 L39.0814905,17.8987095 L39.0814905,18.9249476 C39.0814905,19.9730905 39.9303,20.8219 40.9773476,20.8219 L43.8665857,20.8219 C43.5730619,20.1351857 43.4087762,19.3794714 43.4087762,18.5854238 C43.4087762,18.3368048 43.4295857,18.0936619 43.4624429,17.8538048 C43.4712048,17.781519 43.4876333,17.7103286 43.499681,17.6380429 C43.5292524,17.4671857 43.5643,17.2974238 43.6081095,17.1309476 C43.7351571,16.6490429 43.9191571,16.1890429 44.1612048,15.7651857 C45.1414429,14.0533286 46.9825381,12.8978524 49.0963476,12.8978524 C51.2112524,12.8978524 53.0523476,14.0533286 54.0325857,15.7651857 C54.2965381,16.2273762 54.4958714,16.7311857 54.6218238,17.2623762 C54.6656333,17.445281 54.6984905,17.6314714 54.7258714,17.8198524 C54.7291571,17.8461381 54.7357286,17.8713286 54.7390143,17.8987095 L54.7401095,17.8987095 C54.7685857,18.1232333 54.7850143,18.3521381 54.7850143,18.5854238 C54.7850143,19.3378524 54.6349667,20.0563286 54.3688238,20.7134714 L55.7860619,20.7134714 L63.3410143,20.7134714 L64.9466333,20.7134714 L75.2747286,20.7134714 L76.6908714,20.7134714 C76.4258238,20.0563286 76.2757762,19.3378524 76.2757762,18.5854238 C76.2757762,18.3521381 76.2911095,18.1232333 76.3195857,17.8987095 L76.320681,17.8987095 C76.3239667,17.8713286 76.3305381,17.8461381 76.334919,17.8198524 C76.3612048,17.6314714 76.3940619,17.445281 76.4378714,17.2623762 C76.564919,16.7311857 76.7631571,16.2273762 77.0282048,15.7651857 C77.0774905,15.6786619 77.1388238,15.6009 77.1924905,15.5165667 C77.2297286,15.458519 77.2669667,15.4015667 77.3063952,15.3457095 C77.3863476,15.2296143 77.4695857,15.1168048 77.5583,15.007281 C77.5922524,14.9656619 77.6283952,14.9262333 77.6645381,14.8857095 C77.9788714,14.5199 78.3370143,14.1957095 78.7345857,13.9197095 C78.7674429,13.8967095 78.8003,13.8737095 78.8342524,13.8507095 C78.9711571,13.7598048 79.1102524,13.6743762 79.2548238,13.595519 C79.2592048,13.5933286 79.2624905,13.5922333 79.2668714,13.5900429 C79.7367286,13.3348524 80.2471095,13.1475667 80.7859667,13.0325667 C80.8078714,13.0281857 80.828681,13.0238048 80.8505857,13.0194238 C81.2120143,12.9471381 81.5811095,12.8978524 81.9633476,12.8978524 C83.7507762,12.8978524 85.3432524,13.7225667 86.385919,15.0116619 L86.385919,15.0313762 C86.5710143,15.2613762 86.7374905,15.5078048 86.8853476,15.7651857 L86.8984905,15.7651857 C87.1416333,16.1890429 87.3245381,16.6479476 87.4515857,17.1309476 C87.4964905,17.2963286 87.5315381,17.4660905 87.5611095,17.6380429 C87.5731571,17.7103286 87.5884905,17.781519 87.5983476,17.8549 C87.6301095,18.0936619 87.650919,18.3368048 87.650919,18.5854238 C87.650919,19.3794714 87.4877286,20.1351857 87.1931095,20.8219 L91.6123952,20.8219 C93.1829667,20.8219 94.4556333,19.5481381 94.4556333,17.9775667 L94.4556333,17.8987095 L94.4556333,17.0290905 L94.4556333,15.7651857 L94.4556333,15.7651857 L94.4556333,14.2581381 C94.4556333,11.6689952 89.9585857,9.90675714 86.385919,9.25070952 L86.385919,9.25070952 Z" id="Fill-22" fill="#16619D"></path>
            </g>
        </g>
    </g>
</svg>