<?xml version="1.0" encoding="UTF-8"?>
<svg width="126px" height="23px" viewBox="0 0 126 23" version="1.1" xmlns="http://www.w3.org/2000/svg" xmlns:xlink="http://www.w3.org/1999/xlink">
    <!-- Generator: Sketch 39.1 (31720) - http://www.bohemiancoding.com/sketch -->
    <title>Group 27</title>
    <desc>Created with Sketch.</desc>
    <defs>
        <polygon id="path-1" points="27.5230324 0.861 0.0232280699 0.861 0.0232280699 22.9995324 27.5230324 22.9995324 27.5230324 0.861"></polygon>
    </defs>
    <g id="HOMEPAGE" stroke="none" stroke-width="1" fill="none" fill-rule="evenodd">
        <g id="Artboard" transform="translate(-327.000000, -1509.000000)">
            <g id="Group-27" transform="translate(327.000000, 1508.000000)">
                <g id="Page-1">
                    <path d="M14.2702,5.7334 C14.1972,5.7784 14.0982,5.8004 13.9722,5.8004 L13.8902,5.8004 C13.2392,5.7654 12.4252,5.7194 11.4492,5.6654 C10.4722,5.6114 9.4052,5.5834 8.2472,5.5834 C7.7052,5.5834 7.2122,5.6564 6.7692,5.8004 C6.3252,5.9464 5.9502,6.1944 5.6432,6.5474 C5.3352,6.8994 5.1002,7.3744 4.9372,7.9714 C4.7752,8.5684 4.6932,9.3104 4.6932,10.1954 L4.6932,13.5874 C4.6932,14.5284 4.7882,15.2964 4.9782,15.8924 C5.1682,16.4894 5.4122,16.9604 5.7112,17.3034 C6.0092,17.6484 6.3392,17.8824 6.7012,18.0094 C7.0632,18.1364 7.4062,18.1984 7.7322,18.1984 C8.4732,18.1984 9.1692,18.1724 9.8212,18.1184 L9.8212,11.8784 C9.8212,11.7334 9.8702,11.6064 9.9702,11.4984 C10.0692,11.3894 10.1912,11.3354 10.3362,11.3354 L13.8092,11.3354 C13.9532,11.3354 14.0802,11.3894 14.1892,11.4984 C14.2972,11.6064 14.3512,11.7334 14.3512,11.8784 L14.3512,20.9934 C14.3512,21.3374 14.1702,21.5454 13.8092,21.6174 C13.0672,21.7624 12.2082,21.8934 11.2322,22.0114 C10.2552,22.1284 9.0882,22.1874 7.7322,22.1874 C7.2252,22.1874 6.6782,22.1324 6.0902,22.0244 C5.5032,21.9154 4.9242,21.7354 4.3542,21.4814 C3.7852,21.2284 3.2372,20.8844 2.7132,20.4504 C2.1882,20.0174 1.7232,19.4834 1.3162,18.8504 C0.9092,18.2174 0.5872,17.4624 0.3532,16.5854 C0.1182,15.7074 0.0002,14.7004 0.0002,13.5604 L0.0002,10.1954 C0.0002,8.4604 0.2442,7.0354 0.7332,5.9234 C1.2212,4.8104 1.8582,3.9294 2.6452,3.2774 C3.4322,2.6264 4.3182,2.1754 5.3042,1.9214 C6.2892,1.6684 7.2712,1.5424 8.2472,1.5424 C9.6042,1.5424 10.7612,1.6194 11.7202,1.7724 C12.6782,1.9264 13.4112,2.0574 13.9182,2.1654 C14.2252,2.2204 14.3782,2.3554 14.3782,2.5724 L14.3782,5.4484 C14.3782,5.5934 14.3422,5.6884 14.2702,5.7334" id="Fill-1" fill="#221E1F"></path>
                    <path d="M28.974,10.2428 C28.974,8.5908 28.698,7.3998 28.147,6.6738 C27.595,5.9478 26.749,5.5838 25.61,5.5838 C24.471,5.5838 23.63,5.9478 23.087,6.6738 C22.545,7.3998 22.273,8.5908 22.273,10.2428 L22.273,13.4858 C22.273,15.1388 22.545,16.3288 23.087,17.0548 C23.63,17.7818 24.471,18.1448 25.61,18.1448 C26.749,18.1448 27.595,17.7818 28.147,17.0548 C28.698,16.3288 28.974,15.1388 28.974,13.4858 L28.974,10.2428 Z M33.613,13.4788 C33.613,15.0528 33.405,16.3908 32.99,17.4938 C32.575,18.5978 32.006,19.4968 31.284,20.1928 C30.562,20.8898 29.713,21.3968 28.738,21.7128 C27.763,22.0288 26.716,22.1878 25.596,22.1878 C24.477,22.1878 23.429,22.0288 22.455,21.7128 C21.48,21.3968 20.631,20.8898 19.909,20.1928 C19.187,19.4968 18.618,18.5978 18.203,17.4938 C17.787,16.3908 17.58,15.0528 17.58,13.4788 L17.58,10.2498 C17.58,8.6768 17.787,7.3388 18.203,6.2358 C18.618,5.1318 19.187,4.2328 19.909,3.5358 C20.631,2.8398 21.48,2.3328 22.455,2.0168 C23.429,1.7008 24.477,1.5418 25.596,1.5418 C26.716,1.5418 27.763,1.7008 28.738,2.0168 C29.713,2.3328 30.562,2.8398 31.284,3.5358 C32.006,4.2328 32.575,5.1318 32.99,6.2358 C33.405,7.3388 33.613,8.6768 33.613,10.2498 L33.613,13.4788 Z" id="Fill-3" fill="#221E1F"></path>
                    <path d="M78.4008,7.8898 C78.4008,7.0578 78.0948,6.4478 77.4828,6.0588 C76.8708,5.6698 75.9978,5.4758 74.8638,5.4758 C74.7738,5.4758 74.6248,5.4798 74.4188,5.4888 C74.2118,5.4988 73.9998,5.5078 73.7838,5.5168 C73.5678,5.5248 73.3608,5.5338 73.1628,5.5428 C72.9648,5.5528 72.8298,5.5568 72.7578,5.5568 L72.7578,10.7658 C72.8298,10.7658 72.9558,10.7708 73.1358,10.7798 C73.3158,10.7878 73.5098,10.7968 73.7158,10.8058 C73.9238,10.8158 74.1168,10.8198 74.2968,10.8198 L74.6748,10.8198 C75.3768,10.8198 75.9658,10.7708 76.4428,10.6708 C76.9198,10.5718 77.3018,10.4228 77.5908,10.2228 C77.8788,10.0238 78.0858,9.7618 78.2118,9.4358 C78.3378,9.1108 78.4008,8.7138 78.4008,8.2428 L78.4008,7.8898 Z M83.7178,21.6168 C83.7178,21.8338 83.5828,21.9428 83.3118,21.9428 L79.1368,21.9428 C78.9908,21.9428 78.8818,21.8888 78.8088,21.7798 C78.7358,21.6718 78.6638,21.5458 78.5908,21.3998 L74.9718,14.5368 L74.6748,14.5638 C74.3868,14.5638 74.0588,14.5548 73.6898,14.5368 C73.3198,14.5188 73.0098,14.5098 72.7578,14.5098 L72.7578,21.3998 C72.7578,21.5458 72.7028,21.6718 72.5938,21.7798 C72.4838,21.8888 72.3568,21.9428 72.2118,21.9428 L68.6648,21.9428 C68.5188,21.9428 68.3918,21.8888 68.2818,21.7798 C68.1728,21.6718 68.1188,21.5458 68.1188,21.3998 L68.1188,3.1958 C68.1188,2.7268 68.2188,2.4098 68.4178,2.2468 C68.6168,2.0838 68.9248,1.9668 69.3418,1.8948 C69.6498,1.8408 70.0208,1.7948 70.4558,1.7588 C70.8908,1.7228 71.3528,1.6868 71.8418,1.6498 C72.3318,1.6148 72.8338,1.5868 73.3508,1.5688 C73.8668,1.5508 74.3698,1.5418 74.8588,1.5418 C76.0188,1.5418 77.0968,1.6468 78.0928,1.8538 C79.0898,2.0618 79.9548,2.4138 80.6888,2.9118 C81.4228,3.4098 81.9978,4.0648 82.4148,4.8788 C82.8318,5.6928 83.0398,6.6958 83.0398,7.8898 L83.0398,8.2428 C83.0398,9.6898 82.7028,10.8568 82.0298,11.7418 C81.3568,12.6288 80.5198,13.2708 79.5188,13.6678 L83.6368,21.3188 C83.6908,21.4278 83.7178,21.5268 83.7178,21.6168 L83.7178,21.6168 Z" id="Fill-5" fill="#221E1F"></path>
                    <path d="M91.0567,21.7802 C90.9567,21.8892 90.8347,21.9432 90.6907,21.9432 L87.0557,21.9432 C86.9097,21.9432 86.7927,21.8892 86.7027,21.7802 C86.6117,21.6722 86.5667,21.5452 86.5667,21.4002 L86.5667,2.3022 C86.5667,1.9582 86.7297,1.7852 87.0557,1.7852 L90.6907,1.7852 C91.0337,1.7852 91.2057,1.9582 91.2057,2.3022 L91.2057,21.4002 C91.2057,21.5452 91.1557,21.6722 91.0567,21.7802" id="Fill-7" fill="#221E1F"></path>
                    <path d="M105.5842,10.1144 C105.5842,9.1924 105.4892,8.4324 105.2992,7.8354 C105.1092,7.2394 104.8382,6.7644 104.4852,6.4114 C104.1332,6.0584 103.7122,5.8154 103.2232,5.6794 C102.7362,5.5434 102.1832,5.4754 101.5692,5.4754 C101.2252,5.4754 100.8682,5.4804 100.4972,5.4894 C100.1262,5.4984 99.8412,5.5124 99.6432,5.5294 L99.6432,18.1984 C99.8412,18.2174 100.1262,18.2304 100.4972,18.2394 C100.8682,18.2494 101.2252,18.2534 101.5692,18.2534 C102.1832,18.2534 102.7362,18.1854 103.2232,18.0504 C103.7122,17.9144 104.1332,17.6704 104.4852,17.3174 C104.8382,16.9654 105.1092,16.4894 105.2992,15.8924 C105.4892,15.2964 105.5842,14.5374 105.5842,13.6144 L105.5842,10.1144 Z M110.2232,13.6144 C110.2232,15.0434 110.0242,16.2954 109.6262,17.3714 C109.2282,18.4474 108.6582,19.3434 107.9172,20.0574 C107.1752,20.7724 106.2712,21.3054 105.2042,21.6584 C104.1372,22.0114 102.9252,22.1874 101.5692,22.1874 C101.0082,22.1874 100.4432,22.1734 99.8732,22.1464 C99.3032,22.1194 98.7612,22.0874 98.2462,22.0524 C97.7302,22.0144 97.2602,21.9744 96.8352,21.9294 C96.4092,21.8844 96.0612,21.8344 95.7902,21.7804 C95.5372,21.7444 95.3432,21.6544 95.2072,21.5094 C95.0712,21.3644 95.0042,21.1384 95.0042,20.8304 L95.0042,2.8974 C95.0042,2.5904 95.0712,2.3644 95.2072,2.2204 C95.3432,2.0754 95.5372,1.9844 95.7902,1.9484 C96.0612,1.8944 96.4092,1.8444 96.8352,1.7994 C97.2602,1.7544 97.7302,1.7134 98.2462,1.6774 C98.7612,1.6414 99.3032,1.6094 99.8732,1.5824 C100.4432,1.5554 101.0082,1.5424 101.5692,1.5424 C102.9252,1.5424 104.1372,1.7184 105.2042,2.0704 C106.2712,2.4234 107.1752,2.9574 107.9172,3.6714 C108.6582,4.3864 109.2282,5.2814 109.6262,6.3564 C110.0242,7.4334 110.2232,8.6864 110.2232,10.1144 L110.2232,13.6144 Z" id="Fill-9" fill="#221E1F"></path>
                    <path d="M125.3069,21.8342 C124.8359,21.9072 124.2079,21.9842 123.4219,22.0652 C122.6349,22.1472 121.5089,22.1872 120.0439,22.1872 C119.1759,22.1872 118.3419,22.1152 117.5429,21.9702 C116.7429,21.8252 116.0389,21.5452 115.4299,21.1292 C114.8199,20.7132 114.3339,20.1212 113.9699,19.3522 C113.6059,18.5842 113.4239,17.5842 113.4239,16.3542 L113.4239,7.3482 C113.4239,6.1182 113.6059,5.1232 113.9699,4.3632 C114.3339,3.6032 114.8199,3.0162 115.4299,2.6002 C116.0389,2.1842 116.7479,1.9042 117.5559,1.7592 C118.3639,1.6142 119.2029,1.5422 120.0709,1.5422 C120.7939,1.5422 121.4319,1.5552 121.9829,1.5832 C122.5349,1.6092 123.0189,1.6412 123.4349,1.6772 C123.8509,1.7142 124.2079,1.7502 124.5069,1.7852 C124.8049,1.8232 125.0719,1.8582 125.3069,1.8942 C125.6689,1.9482 125.8489,2.1302 125.8489,2.4372 L125.8489,4.9602 C125.8489,5.1042 125.7949,5.2312 125.6869,5.3402 C125.5779,5.4482 125.4509,5.5022 125.3069,5.5022 L119.7999,5.5022 C119.1659,5.5022 118.7189,5.6342 118.4569,5.8962 C118.1939,6.1582 118.0629,6.6422 118.0629,7.3482 L118.0629,9.8162 L125.0899,9.8162 C125.2339,9.8162 125.3609,9.8712 125.4699,9.9792 C125.5779,10.0882 125.6319,10.2142 125.6319,10.3592 L125.6319,12.9362 C125.6319,13.0812 125.5779,13.2082 125.4699,13.3162 C125.3609,13.4252 125.2339,13.4792 125.0899,13.4792 L118.0629,13.4792 L118.0629,16.3542 C118.0629,17.0602 118.1939,17.5432 118.4569,17.8052 C118.7189,18.0692 119.1659,18.1992 119.7999,18.1992 L125.3069,18.1992 C125.4509,18.1992 125.5779,18.2542 125.6869,18.3622 C125.7949,18.4712 125.8489,18.5972 125.8489,18.7422 L125.8489,21.2652 C125.8489,21.5902 125.6689,21.7802 125.3069,21.8342" id="Fill-11" fill="#221E1F"></path>
                    <g id="Group-15" transform="translate(37.000000, 0.139400)">
                        <mask id="mask-2" fill="white">
                            <use xlink:href="#path-1"></use>
                        </mask>
                        <g id="Clip-14"></g>
                        <path d="M23.0038,21.4783 C21.3558,21.4083 20.0778,20.0133 20.1478,18.3653 C20.1848,17.5213 20.5708,16.7753 21.1578,16.2573 L21.8408,17.4453 C21.5658,17.7153 21.3878,18.0843 21.3698,18.4993 C21.3328,19.3693 22.0078,20.1043 22.8788,20.1423 C23.7468,20.1803 24.4828,19.5053 24.5208,18.6363 C24.5578,17.7663 23.8828,17.0303 23.0128,16.9933 C22.9478,16.9903 22.8828,16.9933 22.8198,16.9973 C22.6608,16.6963 22.4098,16.2203 22.1308,15.6813 C22.4818,15.5563 22.8648,15.4923 23.2618,15.5103 C24.9098,15.5803 26.1878,16.9763 26.1168,18.6233 C26.0448,20.2713 24.6508,21.5513 23.0038,21.4783 L23.0038,21.4783 Z M18.0388,9.8523 C15.3148,9.6413 12.9508,10.7883 12.9508,10.7883 C12.9508,10.7883 12.8708,10.8973 12.7888,10.7833 C12.3148,10.1063 12.2608,9.6023 12.2608,9.6023 L13.3948,6.9653 C14.2718,8.0693 18.0648,9.2503 18.0648,9.2503 L18.0388,9.8523 Z M5.6458,21.2613 C4.0548,21.1913 2.8118,19.8873 2.7948,18.3153 L4.0588,18.3693 C4.0178,19.3123 4.7498,20.1093 5.6928,20.1513 C6.6378,20.1913 7.4348,19.4603 7.4748,18.5153 L8.7378,18.5713 C8.5858,20.1373 7.2368,21.3293 5.6458,21.2613 L5.6458,21.2613 Z M5.9038,15.3023 C6.0438,15.3083 6.1798,15.3273 6.3158,15.3533 L5.8928,16.7393 C5.8738,16.7383 5.8588,16.7373 5.8418,16.7343 C5.1268,16.7043 4.4948,17.1163 4.2138,17.7273 L2.8598,17.6683 C3.1528,16.2643 4.4238,15.2373 5.9038,15.3023 L5.9038,15.3023 Z M7.3808,15.7723 C8.1148,16.2453 8.6258,17.0253 8.7328,17.9233 L7.3758,17.8643 C7.2648,17.5543 7.0678,17.2863 6.8098,17.0883 L7.3808,15.7723 Z M9.9268,7.0663 C9.6618,7.5913 9.3978,8.1163 9.1708,8.5673 C9.0408,8.1693 8.8578,7.5463 8.6948,6.7613 L9.9268,7.0663 Z M23.2798,14.1353 C22.6488,14.1083 22.0418,14.2153 21.4868,14.4303 C20.9138,13.2983 20.4218,12.2693 20.5268,12.2753 C20.7588,12.2853 21.6818,12.3243 21.6818,12.3243 C21.6818,12.3243 21.8368,10.8963 21.7778,10.1073 C21.7198,9.3163 21.4428,9.3033 21.4428,9.3033 L20.4088,9.6283 C19.1878,10.0403 19.0068,9.9393 19.0068,9.9393 C19.0068,9.9393 19.0208,8.7203 18.7898,8.7093 C18.5578,8.6993 17.4288,8.4143 17.4288,8.4143 C17.3338,8.2293 16.5748,7.8283 16.1788,7.5323 C15.7358,7.0293 14.1908,5.9123 13.0758,5.1333 C13.2238,5.1743 13.3798,5.2023 13.5408,5.2083 C14.6498,5.2573 15.5888,4.3963 15.6378,3.2853 C15.6848,2.1743 14.8238,1.2363 13.7138,1.1873 C12.6018,1.1383 11.6638,2.0013 11.6158,3.1113 C11.5948,3.5913 11.7468,4.0403 12.0118,4.3993 C11.9138,4.3333 11.8588,4.2963 11.8588,4.2963 C11.5928,4.0533 11.2838,4.3733 11.2838,4.3733 C11.2838,4.3733 10.9778,4.9803 10.5698,5.7883 L8.4328,5.1113 C8.4268,5.0583 8.4208,5.0053 8.4148,4.9503 C9.3738,4.7733 10.1018,3.9343 10.1018,2.9233 C10.1018,1.7843 9.1778,0.8603 8.0388,0.8603 C6.8988,0.8603 5.9758,1.7843 5.9758,2.9233 C5.9758,3.5473 6.2528,4.1043 6.6898,4.4823 C6.3678,4.9023 5.5328,6.4513 5.9348,10.8733 L5.4918,10.8833 C4.8888,10.9033 4.4318,12.9213 4.4318,12.9213 C2.0988,13.3313 0.7238,16.1883 0.7238,16.1883 L1.3078,16.6303 L1.2658,17.5993 L0.2028,17.5543 C-0.1842,17.9523 0.1748,18.2013 0.1748,18.2013 L1.2368,18.2473 L1.2368,18.2663 L1.2298,18.4333 L1.2338,18.4333 C1.2308,20.8523 3.1368,22.8633 5.5758,22.9683 C8.0178,23.0733 10.0908,21.2313 10.2948,18.8183 C10.7858,18.8133 13.0208,18.7973 14.4558,18.8183 C16.0758,18.8423 16.4868,17.8873 16.4868,17.8873 L16.6328,14.5143 C16.6328,14.5143 17.6498,14.5583 18.1238,14.3463 C18.5928,14.1353 19.2928,13.0083 19.2928,13.0083 L20.4408,15.0103 C19.4088,15.7783 18.7188,16.9883 18.6578,18.3733 C18.5518,20.8203 20.4508,22.8893 22.8968,22.9953 C25.3438,23.1013 27.4138,21.2033 27.5188,18.7563 C27.6248,16.3093 25.7268,14.2403 23.2798,14.1353 L23.2798,14.1353 Z" id="Fill-13" fill="#F9AE3B" mask="url(#mask-2)"></path>
                    </g>
                </g>
            </g>
        </g>
    </g>
</svg>