<?xml version="1.0" encoding="UTF-8"?>
<svg width="106px" height="23px" viewBox="0 0 106 23" version="1.1" xmlns="http://www.w3.org/2000/svg" xmlns:xlink="http://www.w3.org/1999/xlink">
    <!-- Generator: Sketch 41 (35326) - http://www.bohemiancoding.com/sketch -->
    <title>Page 1</title>
    <desc>Created with Sketch.</desc>
    <defs>
        <polygon id="path-1" points="14.1839499 0.218403104 14.1839499 17.6378177 0.00439380356 17.6378177 0.00439380356 0.218403104 14.1839499 0.218403104"></polygon>
    </defs>
    <g id="HOMEPAGE" stroke="none" stroke-width="1" fill="none" fill-rule="evenodd">
        <g id="01_GJK_HOMEPAGE" transform="translate(-660.000000, -2598.000000)">
            <g id="Page-1" transform="translate(660.000000, 2598.000000)">
                <path d="M12.3088632,8.6273153 C12.2461552,8.66658359 12.1599317,8.68586075 12.0516179,8.68586075 L11.9810715,8.68586075 C11.41955,8.65516009 10.7176483,8.61517783 9.87536612,8.56876984 C9.03237139,8.52236186 8.11170428,8.49808692 7.11407739,8.49808692 C6.64590534,8.49808692 6.22048873,8.56091619 5.83854015,8.68586075 C5.45659156,8.81151929 5.13307541,9.02642395 4.86799169,9.33057472 C4.60219539,9.63543947 4.39910705,10.0459716 4.2587267,10.5614572 C4.11905893,11.0776568 4.04851246,11.7188009 4.04851246,12.4841756 L4.04851246,15.4150182 C4.04851246,16.2282288 4.12974779,16.89222 4.29435623,17.4077055 C4.45753949,17.9239051 4.66846632,18.3301534 4.92642413,18.6271645 C5.18366935,18.9241756 5.46728042,19.1276568 5.78010771,19.23618 C6.09150982,19.3461313 6.38794753,19.4011069 6.66942083,19.4011069 C7.30861463,19.4011069 7.90932854,19.3775459 8.47084997,19.3304239 L8.47084997,13.9378164 C8.47084997,13.8128718 8.514318,13.7029206 8.59982887,13.6101047 C8.68533975,13.5158608 8.79080316,13.4687388 8.91550653,13.4687388 L11.910525,13.4687388 C12.0352283,13.4687388 12.1449673,13.5158608 12.2383167,13.6101047 C12.3316661,13.7029206 12.3794096,13.8128718 12.3794096,13.9378164 L12.3794096,21.8157499 C12.3794096,22.112761 12.2226397,22.2926812 11.910525,22.3547965 C11.2713312,22.479741 10.5302369,22.5939761 9.68795478,22.6946457 C8.84567264,22.7967432 7.83949466,22.847435 6.66942083,22.847435 C6.23260277,22.847435 5.76086777,22.8003131 5.25350323,22.7067831 C4.74685129,22.6125392 4.24732525,22.456894 3.75563771,22.2369916 C3.26466276,22.019231 2.79292775,21.72222 2.3404327,21.3466723 C1.88722505,20.9718386 1.48603652,20.5113286 1.13472933,19.9637144 C0.78413474,19.4161002 0.506936981,18.7635326 0.303848649,18.0060115 C0.101472907,17.2477765 0.000285036256,16.3767344 0.000285036256,15.3914572 L0.000285036256,12.4841756 C0.000285036256,10.9841268 0.210499275,9.75253038 0.631640343,8.79152816 C1.053494,7.83052594 1.60361397,7.0680071 2.28200026,6.50539956 C2.96038655,5.94279202 3.72428372,5.552251 4.57440435,5.3337765 C5.42523757,5.11458803 6.27108266,5.00535078 7.11407739,5.00535078 C8.28415122,5.00535078 9.28177811,5.07246386 10.1090958,5.20454812 C10.935701,5.33806031 11.5677689,5.45086741 12.0045869,5.54439734 C12.2696707,5.59151929 12.4022125,5.7086102 12.4022125,5.89638404 L12.4022125,8.38099601 C12.4022125,8.50665455 12.3708585,8.58876098 12.3088632,8.6273153" id="Fill-1" fill="#221F20"></path>
                <path d="M24.9914801,12.5248718 C24.9914801,11.0969339 24.7534748,10.0688186 24.2781769,9.44052594 C23.8021663,8.81294723 23.0731861,8.49808692 22.0905236,8.49808692 C21.1071485,8.49808692 20.3817312,8.81294723 19.9135592,9.44052594 C19.4460997,10.0688186 19.21237,11.0969339 19.21237,12.5248718 L19.21237,15.327914 C19.21237,16.7565659 19.4460997,17.7839672 19.9135592,18.4115459 C20.3817312,19.0398386 21.1071485,19.353271 22.0905236,19.353271 C23.0731861,19.353271 23.8021663,19.0398386 24.2781769,18.4115459 C24.7534748,17.7839672 24.9914801,16.7565659 24.9914801,15.327914 L24.9914801,12.5248718 Z M28.9926765,15.3214882 C28.9926765,16.6808851 28.8138163,17.8375149 28.4553832,18.7906634 C28.0969501,19.7445259 27.6074003,20.5220381 26.9838835,21.123914 C26.3610793,21.7257898 25.6292487,22.1634528 24.7883918,22.4369029 C23.9468222,22.710353 23.0439699,22.847435 22.0784096,22.847435 C21.1128492,22.847435 20.2092843,22.710353 19.3677148,22.4369029 C18.5275704,22.1634528 17.7950272,21.7257898 17.172223,21.123914 C16.5494188,20.5220381 16.0591564,19.7445259 15.7007233,18.7906634 C15.3422902,17.8375149 15.16343,16.6808851 15.16343,15.3214882 L15.16343,12.5312976 C15.16343,11.1711867 15.3422902,10.014557 15.7007233,9.06069446 C16.0591564,8.1075459 16.5494188,7.33074767 17.172223,6.72887184 C17.7950272,6.12699601 18.5275704,5.68933304 19.3677148,5.41516896 C20.2092843,5.14171885 21.1128492,5.00535078 22.0784096,5.00535078 C23.0439699,5.00535078 23.9468222,5.14171885 24.7883918,5.41516896 C25.6292487,5.68933304 26.3610793,6.12699601 26.9838835,6.72887184 C27.6074003,7.33074767 28.0969501,8.1075459 28.4553832,9.06069446 C28.8138163,10.014557 28.9926765,11.1711867 28.9926765,12.5312976 L28.9926765,15.3214882 Z" id="Fill-3" fill="#221F20"></path>
                <path d="M70.6599177,10.6555583 C70.6599177,9.81093304 70.4062355,9.21334102 69.8995835,8.86206829 C69.392219,8.5100816 68.6475618,8.33444523 67.6641867,8.33444523 C67.5865143,8.33444523 67.4539724,8.33872905 67.2665611,8.34658271 C67.0798624,8.35372239 66.8881755,8.36157605 66.6936382,8.36942971 C66.4976758,8.37799734 66.3102645,8.38513703 66.1321168,8.39299069 C65.952544,8.40155831 65.8314036,8.40512816 65.7694082,8.40512816 L65.7694082,13.1880062 C65.8314036,13.1880062 65.952544,13.1915761 66.1321168,13.1994297 C66.3102645,13.2072834 66.5062269,13.215137 66.7171537,13.2229907 C66.927368,13.2308443 67.1219052,13.2344142 67.301478,13.2344142 L67.6641867,13.2344142 C68.7095572,13.2344142 69.4698914,13.0395007 69.9459019,12.6482457 C70.4219125,12.2577047 70.6599177,11.6636825 70.6599177,10.8668931 L70.6599177,10.6555583 Z M74.6611142,10.8668931 C74.6611142,11.9606936 74.4615888,12.871718 74.062538,13.5978244 C73.6634873,14.3246448 73.1361702,14.9072435 72.4791616,15.3441925 C71.8221531,15.7825694 71.0746455,16.091004 70.2380641,16.2702102 C69.4014827,16.4501304 68.5449487,16.5400905 67.6698874,16.5400905 C67.3877015,16.5400905 67.0748742,16.5322368 66.7306929,16.5172435 C66.3865117,16.5015361 66.0658459,16.4858288 65.7694082,16.4701215 L65.7694082,22.1668798 C65.7694082,22.2925384 65.7216646,22.4017756 65.6283152,22.4953055 C65.5349659,22.5895494 65.4252269,22.6359574 65.3005235,22.6359574 L62.2819896,22.6359574 C62.1572862,22.6359574 62.0482599,22.5938333 61.9549105,22.507443 C61.8608485,22.4210528 61.8145301,22.3160993 61.8145301,22.1904408 L61.8145301,6.4352878 C61.8145301,6.02975344 61.900041,5.75558936 62.0717753,5.6142235 C62.2435097,5.47428559 62.509306,5.372902 62.8691643,5.31007273 C63.4627523,5.21654279 64.1938703,5.14157605 65.0618057,5.08731441 C65.9283159,5.0323388 66.7848498,5.00520798 67.6278446,5.00520798 C68.5185829,5.00520798 69.3865183,5.09088426 70.2302256,5.26295078 C71.0739329,5.43501729 71.8242908,5.73988204 72.4812994,6.17754501 C73.1375954,6.61520798 73.6649125,7.19709268 74.0632506,7.92391308 C74.4615888,8.65073348 74.6611142,9.56175787 74.6611142,10.6555583 L74.6611142,10.8668931 Z" id="Fill-5" fill="#221F20"></path>
                <path d="M83.3188054,8.68586075 C83.2874514,8.56091619 83.2560974,8.4709561 83.2247434,8.41669446 C83.1933895,8.36171885 83.1235556,8.33458803 83.0145292,8.33458803 C82.8427949,8.33458803 82.7337685,8.45167894 82.6867375,8.68586075 L81.2594185,15.1565614 L84.7461245,15.1565614 L83.3188054,8.68586075 Z M90.3855668,22.2612665 C90.3855668,22.5111557 90.2523123,22.6361002 89.9872286,22.6361002 L86.712162,22.6361002 C86.5867461,22.6361002 86.4855582,22.5968319 86.4078858,22.5190093 C86.3295009,22.4411867 86.2746314,22.3390891 86.2432774,22.2141446 L85.4017078,18.3694217 L80.6038351,18.3694217 L79.7622655,22.2141446 C79.7309115,22.3390891 79.6760421,22.4411867 79.5976571,22.5190093 C79.5199847,22.5968319 79.4180842,22.6361002 79.2940935,22.6361002 L76.0183143,22.6361002 C75.752518,22.6361002 75.6199761,22.5111557 75.6199761,22.2612665 C75.6199761,22.2455592 75.6235391,22.2298519 75.6320902,22.2141446 C75.6399287,22.1991512 75.6434916,22.1755902 75.6434916,22.1441756 L79.1301976,7.60776763 C79.270578,7.04444612 79.4736663,6.5917898 79.73875,6.24765676 C80.0038338,5.90423769 80.3116729,5.64221109 80.6622675,5.46229091 C81.0142873,5.28237073 81.3919603,5.16099601 81.7974244,5.09888071 C82.2036011,5.03676541 82.6090651,5.00535078 83.0145292,5.00535078 C83.4207059,5.00535078 83.8218944,5.03676541 84.2202326,5.09888071 C84.6171456,5.16099601 84.9919682,5.28237073 85.3432754,5.46229091 C85.69387,5.64221109 86.0017092,5.90423769 86.2675055,6.24765676 C86.5325892,6.5917898 86.7349649,7.04444612 86.8753453,7.60776763 L90.3627639,22.1441756 C90.3627639,22.1755902 90.3663268,22.1991512 90.3734527,22.2141446 C90.3812912,22.2298519 90.3855668,22.2455592 90.3855668,22.2612665 L90.3855668,22.2612665 Z" id="Fill-7" fill="#221F20"></path>
                <g id="Group-11" transform="translate(91.059987, 4.998211)">
                    <mask id="mask-2" fill="white">
                        <use xlink:href="#path-1"></use>
                    </mask>
                    <g id="Clip-10"></g>
                    <path d="M14.1842349,0.569675831 C14.1842349,0.647498448 14.1763964,0.703188027 14.1607194,0.733174723 L10.6276951,8.84600399 C10.3939653,9.39290421 10.1516845,9.79986652 9.90156519,10.065463 C9.65287106,10.3310594 9.38778734,10.5259729 9.10631404,10.6509175 L9.10631404,17.1687401 C9.10631404,17.2943987 9.05999565,17.4036359 8.96593368,17.4971659 C8.87258431,17.5914098 8.76355794,17.6378177 8.63885458,17.6378177 L5.57328965,17.6378177 C5.4478737,17.6378177 5.33884733,17.5914098 5.24549796,17.4971659 C5.15143599,17.4036359 5.1051176,17.2943987 5.1051176,17.1687401 L5.1051176,10.6509175 C4.82435689,10.5259729 4.55499763,10.3310594 4.29775241,10.065463 C4.04050719,9.79986652 3.79466341,9.39290421 3.56093368,8.84600399 L0.027196704,0.733174723 C0.01151971,0.703188027 0.00439380356,0.647498448 0.00439380356,0.569675831 C0.00439380356,0.476145898 0.0350352011,0.394039468 0.0970305867,0.323356541 C0.159025972,0.253387583 0.253087937,0.218403104 0.378503889,0.218403104 L3.74763243,0.218403104 C3.87233579,0.218403104 3.97352367,0.257671397 4.05190864,0.335494013 C4.13029361,0.41331663 4.18445049,0.507560532 4.21580448,0.616083814 L6.74336348,7.22815033 C6.80535887,7.38450953 6.86022835,7.48303725 6.90654674,7.52087761 C6.95429031,7.5601459 7.0155731,7.57942306 7.09395808,7.57942306 C7.17163045,7.57942306 7.23433843,7.5601459 7.28065682,7.52087761 C7.3284004,7.48303725 7.38255728,7.38450953 7.44526526,7.22815033 L9.97211167,0.616083814 C10.0034657,0.507560532 10.0576225,0.41331663 10.1360075,0.335494013 C10.2143925,0.257671397 10.3148678,0.218403104 10.4402837,0.218403104 L13.8101249,0.218403104 C13.9341156,0.218403104 14.0281776,0.253387583 14.0908856,0.323356541 C14.1528809,0.394039468 14.1842349,0.476145898 14.1842349,0.569675831" id="Fill-9" fill="#221F20" mask="url(#mask-2)"></path>
                </g>
                <path d="M35.5462301,5.36347761 C35.5462301,5.36347761 34.5600047,5.21068825 34.3797192,6.1502714 L34.3797192,21.2078767 C34.3797192,21.2078767 34.7124991,22.650808 35.7094134,22.650808 L54.2446085,22.650808 C54.2446085,22.650808 55.4944925,22.6186794 55.6655142,22.0160896 C55.6783409,21.9718235 55.6847542,21.9247016 55.6847542,21.8732958 L55.6847542,17.8043867 L46.9341411,17.8043867 C46.9341411,17.8043867 45.9001721,17.3231716 45.9001721,16.0651583 L45.9001721,11.218737 C45.9001721,11.218737 45.8631174,9.85005854 47.3403178,9.85005854 L55.6113574,9.85005854 L55.6113574,6.11385898 C55.6113574,6.11385898 55.5001932,5.37347317 54.6878399,5.37347317 L35.5462301,5.36347761 Z" id="Fill-12" fill="#5CA5DA"></path>
                <path d="M45.3048739,4.05641463 L53.2887394,4.0342816 L51.8799477,1.83811308 C51.8799477,1.83811308 51.6782846,1.54681375 50.1134355,2.1965255 C48.5478739,2.84623725 45.3048739,4.05641463 45.3048739,4.05641463" id="Fill-14" fill="#5CA5DA"></path>
                <path d="M40.1611809,4.23562084 L49.1070438,1.27764745 C49.1070438,1.27764745 47.8094162,-0.200982262 47.049082,0.0232039911 L40.1611809,4.23562084 Z" id="Fill-16" fill="#5CA5DA"></path>
                <path d="M49.8679481,14.6353641 C49.3947879,14.6353641 49.0114141,14.2512488 49.0114141,13.7778874 C49.0114141,13.303812 49.3947879,12.9196967 49.8679481,12.9196967 C50.3411082,12.9196967 50.7237694,13.303812 50.7237694,13.7778874 C50.7237694,14.2512488 50.3411082,14.6353641 49.8679481,14.6353641 M56.2990786,11.1669029 L47.265567,11.163333 L47.265567,16.4010093 L56.2777009,16.4010093 C56.2777009,16.4010093 57.0893416,16.4010093 57.0893416,15.6334927 L57.0893416,12.1114838 C57.0893416,12.1114838 57.1548999,11.1669029 56.2990786,11.1669029" id="Fill-18" fill="#5CA5DA"></path>
            </g>
        </g>
    </g>
</svg>